# xmcd
#
# Track frame offsets:
#	150
#	1332
#	15319
#	29273
#	45651
#	63290
#	78192
#	97859
#	115170
#	133662
#	154314
#	167798
#	183333
#	189613
#
# Disc length: 2708
#
# Revision: 1
# Processed by: cddbd v1.5.1PL0 Copyright (c) Steve Scherf et al.
# Submitted via: EasyCDDAExtractor 5.0.2.1
# Normalized: r0:DSETVAR1
#
DISCID=a30a920e
DTITLE=Various Artist - Snoop Dogg For President
DYEAR=2003
DGENRE=West Coast Gangster
TTITLE0=Snoop Dogg - Intro (Ft. Marvin Gaye)
TTITLE1=Snoop Dogg - Get All Done Up
TTITLE2=Snoop Dogg - Many Many (Ft. Busta Rymes)
TTITLE3=Snoop Dogg - Cars Ride By
TTITLE4=Snoop Dogg - Don't Start No Bullshit (Ft. Young Buck)
TTITLE5=Snoop Dogg - You Don't wanna Play Me (Ft. David Banner)
TTITLE6=Snoop Dogg - Hoes (Freestyle)
TTITLE7=Snoop Dogg - Dick Will Do (Ft. Lloyd Banks and Busta Rymes)
TTITLE8=Snoop Dogg - I'm Fly Ft. Nate Dogg)
TTITLE9=Snoop Dogg - Tell Me What You Want
TTITLE10=Snoop Dogg - Chronic (Ft. Young Buck)
TTITLE11=2Pac - Don't Fall Asleep (Ft. Daz and Busta Rymes)
TTITLE12=2Pac - One day At A Time
TTITLE13=Snoop Dogg - Outro
EXTD=
EXTT0=
EXTT1=
EXTT2=
EXTT3=
EXTT4=
EXTT5=
EXTT6=
EXTT7=
EXTT8=
EXTT9=
EXTT10=
EXTT11=
EXTT12=
EXTT13=
PLAYORDER=
